<?xml version="1.0" encoding="UTF-8"?>
<svg version="1.1" xmlns="http://www.w3.org/2000/svg" width="1080" height="1080">
<path d="M0 0 C356.4 0 712.8 0 1080 0 C1080 356.4 1080 712.8 1080 1080 C723.6 1080 367.2 1080 0 1080 C0 723.6 0 367.2 0 0 Z " fill="#FEFEFE" transform="translate(0,0)"/>
<path d="M0 0 C1.20292694 0.00021149 2.40585388 0.00042297 3.64523315 0.00064087 C21.39608348 0.0318442 38.40653923 0.6568908 55.8125 4.375 C56.69244629 4.54628418 57.57239258 4.71756836 58.47900391 4.89404297 C84.16755749 9.91032214 108.6800589 19.29045748 131.8125 31.375 C132.63637207 31.79749023 133.46024414 32.21998047 134.30908203 32.65527344 C151.92500265 41.73579576 168.03626494 53.19675665 182.8125 66.375 C183.97265625 67.37080078 183.97265625 67.37080078 185.15625 68.38671875 C198.41064257 79.9389205 211.19417847 92.45969167 221.57080078 106.68457031 C222.85451328 108.43219621 224.17158559 110.15032055 225.49609375 111.8671875 C233.12456911 121.8613443 239.54717402 132.48767455 245.8125 143.375 C246.1847168 144.00809082 246.55693359 144.64118164 246.94042969 145.29345703 C257.60278777 163.49088826 264.99937368 183.77734814 270.22900391 204.1484375 C270.75380444 206.15102364 271.33259364 208.13927524 271.91796875 210.125 C276.7058935 226.56170718 279.50553944 244.26283065 279.8125 261.375 C279.83296387 262.42204102 279.85342773 263.46908203 279.87451172 264.54785156 C280.20283474 284.46973262 279.07745559 302.87806015 274.8125 322.375 C274.58304688 323.57125 274.35359375 324.7675 274.1171875 326 C269.5140235 348.16669268 260.69433884 370.0829313 250.8125 390.375 C250.48185547 391.05981445 250.15121094 391.74462891 249.81054688 392.45019531 C247.87601759 396.44040234 245.88661294 400.39921906 243.85595703 404.34130859 C242.77569884 406.44672525 241.71420609 408.56103537 240.65234375 410.67578125 C233.51019601 424.7317472 225.18810664 438.02899057 216.8125 451.375 C213.0306185 457.40585412 213.0306185 457.40585412 209.25 463.4375 C208.33154297 464.90316406 208.33154297 464.90316406 207.39453125 466.3984375 C174.17631895 519.54757717 141.01035375 575.0492756 133.4050293 638.43774414 C132.29044942 646.49485261 129.03939761 653.74277467 122.9375 659.3125 C116.33458528 663.67042371 110.51900061 664.8206976 102.79348755 664.76940918 C101.9198276 664.77550028 101.04616766 664.78159139 100.14603317 664.78786707 C97.23670662 664.80443339 94.32782079 664.79973038 91.41845703 664.79492188 C89.32515002 664.80226588 87.23184706 664.81085307 85.1385498 664.82058716 C79.46494336 664.84277648 73.79148226 664.84573513 68.11783838 664.84383965 C63.37636018 664.84371983 58.63491264 664.8522885 53.89344299 664.86061716 C42.70482003 664.87984183 31.51627167 664.88273839 20.32763672 664.87597656 C8.79638471 664.86933577 -2.73454742 664.89220407 -14.26573455 664.92929029 C-24.17681687 664.96000597 -34.08779638 664.9713453 -43.99892533 664.96745348 C-49.91364629 664.965388 -55.82811827 664.97083469 -61.74279404 664.99534607 C-67.3063221 665.01764136 -72.86933069 665.01571179 -78.43286133 664.99541855 C-80.47016937 664.99201351 -82.50751258 664.99707564 -84.5447731 665.01140213 C-96.38691348 665.08890779 -105.17446754 664.914355 -114.80859375 657.3046875 C-121.32426557 649.93427163 -122.63080812 643.05111948 -124.09692383 633.50512695 C-128.89599615 602.60873377 -140.18792266 574.15659069 -154.1875 546.375 C-154.67621582 545.39644043 -155.16493164 544.41788086 -155.66845703 543.40966797 C-163.0973921 528.58905427 -171.38014201 514.41427522 -180.1875 500.375 C-180.703125 499.5504834 -181.21875 498.7259668 -181.75 497.87646484 C-186.30009797 490.60845354 -190.90985056 483.37873562 -195.51953125 476.1484375 C-203.60572427 463.46327218 -211.64586911 450.75114294 -219.57617188 437.96777344 C-220.9237746 435.79935815 -222.28055186 433.63715568 -223.640625 431.4765625 C-252.58912354 384.9767669 -275.02901804 329.31959268 -274.625 273.875 C-274.62162628 272.96635193 -274.61825256 272.05770386 -274.61477661 271.121521 C-274.23303799 199.65286923 -243.21858022 130.28261021 -192.875 79.875 C-188.46148537 75.52354822 -183.95998689 71.32979556 -179.1875 67.375 C-178.63078613 66.90980957 -178.07407227 66.44461914 -177.50048828 65.96533203 C-138.04092821 33.06717687 -92.00256691 10.99821356 -41.1875 2.375 C-39.64267944 2.0968042 -39.64267944 2.0968042 -38.06665039 1.81298828 C-25.44419759 -0.18995171 -12.74953016 -0.02056885 0 0 Z " fill="#FEFEFE" transform="translate(536.1875,130.625)"/>
<path d="M0 0 C1.20292694 0.00021149 2.40585388 0.00042297 3.64523315 0.00064087 C21.39608348 0.0318442 38.40653923 0.6568908 55.8125 4.375 C56.69244629 4.54628418 57.57239258 4.71756836 58.47900391 4.89404297 C84.16755749 9.91032214 108.6800589 19.29045748 131.8125 31.375 C132.63637207 31.79749023 133.46024414 32.21998047 134.30908203 32.65527344 C151.92500265 41.73579576 168.03626494 53.19675665 182.8125 66.375 C183.97265625 67.37080078 183.97265625 67.37080078 185.15625 68.38671875 C198.41064257 79.9389205 211.19417847 92.45969167 221.57080078 106.68457031 C222.85451328 108.43219621 224.17158559 110.15032055 225.49609375 111.8671875 C233.12456911 121.8613443 239.54717402 132.48767455 245.8125 143.375 C246.1847168 144.00809082 246.55693359 144.64118164 246.94042969 145.29345703 C257.60278777 163.49088826 264.99937368 183.77734814 270.22900391 204.1484375 C270.75380444 206.15102364 271.33259364 208.13927524 271.91796875 210.125 C276.7058935 226.56170718 279.50553944 244.26283065 279.8125 261.375 C279.83296387 262.42204102 279.85342773 263.46908203 279.87451172 264.54785156 C280.20283474 284.46973262 279.07745559 302.87806015 274.8125 322.375 C274.58304688 323.57125 274.35359375 324.7675 274.1171875 326 C269.5140235 348.16669268 260.69433884 370.0829313 250.8125 390.375 C250.48185547 391.05981445 250.15121094 391.74462891 249.81054688 392.45019531 C247.87601759 396.44040234 245.88661294 400.39921906 243.85595703 404.34130859 C242.77569884 406.44672525 241.71420609 408.56103537 240.65234375 410.67578125 C233.51019601 424.7317472 225.18810664 438.02899057 216.8125 451.375 C213.0306185 457.40585412 213.0306185 457.40585412 209.25 463.4375 C208.33154297 464.90316406 208.33154297 464.90316406 207.39453125 466.3984375 C174.17631895 519.54757717 141.01035375 575.0492756 133.4050293 638.43774414 C132.29044942 646.49485261 129.03939761 653.74277467 122.9375 659.3125 C116.33458528 663.67042371 110.51900061 664.8206976 102.79348755 664.76940918 C101.9198276 664.77550028 101.04616766 664.78159139 100.14603317 664.78786707 C97.23670662 664.80443339 94.32782079 664.79973038 91.41845703 664.79492188 C89.32515002 664.80226588 87.23184706 664.81085307 85.1385498 664.82058716 C79.46494336 664.84277648 73.79148226 664.84573513 68.11783838 664.84383965 C63.37636018 664.84371983 58.63491264 664.8522885 53.89344299 664.86061716 C42.70482003 664.87984183 31.51627167 664.88273839 20.32763672 664.87597656 C8.79638471 664.86933577 -2.73454742 664.89220407 -14.26573455 664.92929029 C-24.17681687 664.96000597 -34.08779638 664.9713453 -43.99892533 664.96745348 C-49.91364629 664.965388 -55.82811827 664.97083469 -61.74279404 664.99534607 C-67.3063221 665.01764136 -72.86933069 665.01571179 -78.43286133 664.99541855 C-80.47016937 664.99201351 -82.50751258 664.99707564 -84.5447731 665.01140213 C-96.38691348 665.08890779 -105.17446754 664.914355 -114.80859375 657.3046875 C-121.32426557 649.93427163 -122.63080812 643.05111948 -124.09692383 633.50512695 C-128.89599615 602.60873377 -140.18792266 574.15659069 -154.1875 546.375 C-154.67621582 545.39644043 -155.16493164 544.41788086 -155.66845703 543.40966797 C-163.0973921 528.58905427 -171.38014201 514.41427522 -180.1875 500.375 C-180.703125 499.5504834 -181.21875 498.7259668 -181.75 497.87646484 C-186.30009797 490.60845354 -190.90985056 483.37873562 -195.51953125 476.1484375 C-203.60572427 463.46327218 -211.64586911 450.75114294 -219.57617188 437.96777344 C-220.9237746 435.79935815 -222.28055186 433.63715568 -223.640625 431.4765625 C-252.58912354 384.9767669 -275.02901804 329.31959268 -274.625 273.875 C-274.62162628 272.96635193 -274.61825256 272.05770386 -274.61477661 271.121521 C-274.23303799 199.65286923 -243.21858022 130.28261021 -192.875 79.875 C-188.46148537 75.52354822 -183.95998689 71.32979556 -179.1875 67.375 C-178.63078613 66.90980957 -178.07407227 66.44461914 -177.50048828 65.96533203 C-138.04092821 33.06717687 -92.00256691 10.99821356 -41.1875 2.375 C-39.64267944 2.0968042 -39.64267944 2.0968042 -38.06665039 1.81298828 C-25.44419759 -0.18995171 -12.74953016 -0.02056885 0 0 Z M-96.29003906 80.36279297 C-98.17950613 81.37073564 -100.08429111 82.34389685 -101.9921875 83.31640625 C-118.71096591 92.05514329 -133.73594233 104.21671757 -147.1875 117.375 C-148.18707696 118.32466422 -149.18708983 119.27386981 -150.1875 120.22265625 C-157.62949077 127.36915097 -164.12530253 135.03153534 -170.1875 143.375 C-170.66155273 144.02645996 -171.13560547 144.67791992 -171.62402344 145.34912109 C-203.51972829 189.80495822 -218.79454714 245.82658088 -210.86328125 300.3203125 C-210.7545166 300.97290039 -210.64575195 301.62548828 -210.53369141 302.29785156 C-210.29067527 303.75594839 -210.06246218 305.21655267 -209.84521484 306.67871094 C-203.78301268 347.20700763 -185.14161393 384.79325884 -158.1875 415.375 C-157.53910156 416.13425781 -156.89070313 416.89351562 -156.22265625 417.67578125 C-148.93345103 426.18811841 -140.93417605 433.38260078 -132.1875 440.375 C-131.03507812 441.34566406 -131.03507812 441.34566406 -129.859375 442.3359375 C-93.44757541 472.67910382 -46.15185823 487.83261315 0.82836914 487.63574219 C3.87341156 487.6250056 6.91786582 487.63570398 9.96289062 487.6484375 C20.44105312 487.65670743 30.49266451 487.33644829 40.8125 485.375 C41.76938721 485.20339355 42.72627441 485.03178711 43.7121582 484.85498047 C57.53678849 482.26897417 70.73081271 478.52498268 83.8125 473.375 C84.8651001 472.96145264 84.8651001 472.96145264 85.93896484 472.53955078 C136.01169327 452.50327366 179.25101539 411.289092 200.9765625 361.80859375 C223.41882513 308.51731822 227.66922748 248.43588857 205.92724609 194.03271484 C186.82738995 148.49591372 156.46207593 112.68586304 114.8125 86.375 C114.16619629 85.96507812 113.51989258 85.55515625 112.85400391 85.1328125 C85.76505401 68.23146297 49.82508559 56.79499019 17.8125 56.375 C16.31154785 56.33850342 16.31154785 56.33850342 14.78027344 56.30126953 C-24.46709466 55.39728866 -61.45345085 61.67803815 -96.29003906 80.36279297 Z " fill="#000000" transform="translate(536.1875,130.625)"/>
<path d="M0 0 C18.86496696 7.89503022 40.82568031 25.11352047 52.375 42.4375 C55.51108345 41.07604692 57.2895345 39.64238211 59.4375 37 C72.55471495 21.60394685 93.74550543 0.15696864 114.859375 -1.90234375 C122.22450317 -2.09657181 128.19613748 -2.1313096 133.98046875 2.80859375 C140.79226401 9.82221998 142.85476059 19.07275094 142.93139648 28.58081055 C142.91278564 29.64726807 142.8941748 30.71372559 142.875 31.8125 C142.86218994 32.9466333 142.84937988 34.0807666 142.83618164 35.24926758 C142.38961945 54.14401602 137.19201292 71.57691607 131.375 89.4375 C131.93985107 89.49083496 132.50470215 89.54416992 133.08666992 89.59912109 C157.14321936 92.04281708 185.81470238 101.0141689 202.375 119.4375 C206.27639997 124.49956646 207.01526878 129.44045423 206.76171875 135.76171875 C205.62407526 143.6332924 200.55184244 149.98323349 194.38671875 154.74609375 C176.94657002 165.91516667 152.42831495 177.68714405 131.375 177.4375 C131.57134033 178.06615967 131.76768066 178.69481934 131.9699707 179.3425293 C137.74654573 197.90124067 142.54893501 215.00178392 142.5625 234.5625 C142.57474609 235.49964844 142.58699219 236.43679688 142.59960938 237.40234375 C142.61853284 246.42252832 141.3172274 256.05959415 134.95703125 262.98046875 C128.9687237 268.22985917 123.15283361 269.12583072 115.3984375 269.00390625 C103.0922926 267.79152309 91.51098725 259.08679116 82.375 251.4375 C81.79588867 250.95700195 81.21677734 250.47650391 80.62011719 249.98144531 C71.10497397 242.06641608 62.42412324 233.85668677 54.375 224.4375 C51.23891655 225.79895308 49.4604655 227.23261789 47.3125 229.875 C33.43004741 246.16923461 13.02714538 266.01845043 -9.05859375 268.8828125 C-15.55881797 269.1082538 -21.52417371 268.80631705 -26.625 264.4375 C-37.13608001 251.83360988 -36.28209339 237.29045384 -35.421875 221.7734375 C-33.85824104 206.98689894 -29.95488541 190.91028363 -23.625 177.4375 C-24.49898437 177.38251343 -24.49898437 177.38251343 -25.390625 177.32641602 C-32.38617782 176.77026407 -38.88396519 175.28815194 -45.625 173.375 C-46.71570801 173.06626953 -47.80641602 172.75753906 -48.93017578 172.43945312 C-66.01554195 167.43543392 -86.95042041 160.00228169 -97.00390625 144.28125 C-99.75687717 138.83286155 -100.82727494 133.46737123 -99.625 127.4375 C-93.9331396 113.56099362 -80.53252417 106.2503821 -67.38671875 100.55078125 C-53.88866671 94.96883506 -39.86281158 91.54053198 -25.625 88.4375 C-26.16471729 83.55371669 -27.24487443 79.11370071 -28.69482422 74.42333984 C-34.69974437 54.95195836 -41.52541898 27.65775784 -31.625 8.4375 C-24.42542802 -2.82699885 -12.14670333 -4.09003653 0 0 Z " fill="#070707" transform="translate(486.625,269.5625)"/>
<path d="M0 0 C0.91894716 -0.00367669 1.83789431 -0.00735338 2.78468835 -0.01114148 C5.88302492 -0.02220893 8.98132799 -0.02602736 12.0796814 -0.02983093 C14.29357002 -0.03609334 16.50745759 -0.04273994 18.72134399 -0.04974365 C24.75049239 -0.06717571 30.77963285 -0.07771172 36.80880022 -0.08594918 C40.57415817 -0.09109534 44.33951364 -0.09717129 48.10486984 -0.10346031 C58.53106929 -0.12033436 68.95726716 -0.13496843 79.38347816 -0.14220905 C82.08982978 -0.14411895 84.79618138 -0.14603927 87.50253296 -0.147995 C88.17518241 -0.14847874 88.84783186 -0.14896248 89.54086463 -0.14946087 C100.4314827 -0.15775686 111.32199078 -0.18308516 122.21256085 -0.21557567 C133.39526117 -0.24866541 144.57792172 -0.26632701 155.76067483 -0.26985329 C162.03869041 -0.27220545 168.31653226 -0.28118737 174.5945015 -0.30631447 C180.50258215 -0.32957808 186.4103745 -0.33383511 192.31848907 -0.32355309 C194.48564233 -0.32305718 196.65280968 -0.32939365 198.81991959 -0.34310913 C201.78198453 -0.36080492 204.74301231 -0.35373279 207.70507812 -0.34057617 C208.98710914 -0.35703004 208.98710914 -0.35703004 210.29503977 -0.37381631 C216.8028071 -0.30418232 222.34721898 1.2976678 227.07333374 5.96357727 C227.4355603 6.53978821 227.79778687 7.11599915 228.17098999 7.70967102 C228.74140015 8.57785461 228.74140015 8.57785461 229.32333374 9.46357727 C231.53229456 13.54968076 231.70739513 17.61491459 231.23348999 22.14717102 C229.06071863 27.97934678 225.70706878 31.80641845 220.23324585 34.77339172 C215.41248492 36.74728059 210.62382465 36.52212575 205.48739624 36.44013977 C204.47628281 36.43589493 203.46516937 36.43165009 202.42341614 36.42727661 C199.21399598 36.41056856 196.00521834 36.37293055 192.79598999 36.33467102 C190.61175431 36.31961403 188.42750872 36.3059274 186.24325562 36.2936554 C180.90645019 36.26069093 175.57001601 36.21057045 170.23348999 36.14717102 C170.0152356 37.56642883 170.0152356 37.56642883 169.79257202 39.01435852 C168.57780613 45.82129125 164.23262289 50.56771447 159.07723999 54.92060852 C153.95401828 58.32885347 149.30452146 58.44420568 143.34750366 58.43769836 C142.46229538 58.44441559 141.5770871 58.45113281 140.66505432 58.45805359 C137.7437984 58.4770236 134.82277239 58.4809574 131.90145874 58.48310852 C129.86510627 58.48953751 127.82875472 58.49626595 125.79240417 58.50328064 C121.52461608 58.51525119 117.25690892 58.51896173 112.98910522 58.51777649 C107.53165909 58.5175734 102.07473429 58.54486616 96.61741161 58.57932091 C92.41110368 58.60160554 88.20492086 58.60561353 83.99855995 58.60455704 C81.98719805 58.60691099 79.9758326 58.6157229 77.96452904 58.63122177 C75.14520604 58.65091165 72.32700258 58.64503174 69.50765991 58.63301086 C68.6840094 58.64424988 67.86035889 58.65548889 67.01174927 58.66706848 C60.29749411 58.59465861 55.1060151 56.65872395 50.02645874 52.21748352 C42.23348999 42.77490825 42.23348999 42.77490825 42.23348999 36.14717102 C41.62485107 36.15827408 41.01621216 36.16937714 40.38912964 36.18081665 C34.02978249 36.29180358 27.67071239 36.367001 21.31063843 36.42182922 C18.94008195 36.44690677 16.56960229 36.48097734 14.1993103 36.52436829 C10.78342694 36.58531499 7.36856963 36.61344952 3.95223999 36.63545227 C2.37364197 36.67416191 2.37364197 36.67416191 0.76315308 36.71365356 C-5.97949446 36.71619886 -10.61661429 35.66220478 -15.76651001 31.14717102 C-20.29533114 25.34099008 -21.6217135 20.37424276 -20.76651001 13.14717102 C-17.33806535 3.27325039 -9.78508564 -0.00207817 0 0 Z " fill="#000000" transform="translate(432.7665100097656,890.8528289794922)"/>
<path d="M0 0 C0.91894716 -0.00367669 1.83789431 -0.00735338 2.78468835 -0.01114148 C5.88302492 -0.02220893 8.98132799 -0.02602736 12.0796814 -0.02983093 C14.29357002 -0.03609334 16.50745759 -0.04273994 18.72134399 -0.04974365 C24.75049239 -0.06717571 30.77963285 -0.07771172 36.80880022 -0.08594918 C40.57415817 -0.09109534 44.33951364 -0.09717129 48.10486984 -0.10346031 C58.53106929 -0.12033436 68.95726716 -0.13496843 79.38347816 -0.14220905 C82.08982978 -0.14411895 84.79618138 -0.14603927 87.50253296 -0.147995 C88.17518241 -0.14847874 88.84783186 -0.14896248 89.54086463 -0.14946087 C100.4314827 -0.15775686 111.32199078 -0.18308516 122.21256085 -0.21557567 C133.39526117 -0.24866541 144.57792172 -0.26632701 155.76067483 -0.26985329 C162.03869041 -0.27220545 168.31653226 -0.28118737 174.5945015 -0.30631447 C180.50258215 -0.32957808 186.4103745 -0.33383511 192.31848907 -0.32355309 C194.48564233 -0.32305718 196.65280968 -0.32939365 198.81991959 -0.34310913 C201.78198453 -0.36080492 204.74301231 -0.35373279 207.70507812 -0.34057617 C208.98710914 -0.35703004 208.98710914 -0.35703004 210.29503977 -0.37381631 C216.8028071 -0.30418232 222.34721898 1.2976678 227.07333374 5.96357727 C227.4355603 6.53978821 227.79778687 7.11599915 228.17098999 7.70967102 C228.74140015 8.57785461 228.74140015 8.57785461 229.32333374 9.46357727 C231.52978791 13.54504399 231.81441348 17.62080881 231.23348999 22.14717102 C229.17276594 28.34054277 225.98686556 32.19785776 220.14462948 35.23201942 C216.09437806 36.50526451 212.31475233 36.42978933 208.09275818 36.41459656 C207.16983662 36.41912767 206.24691505 36.42365878 205.29602617 36.4283272 C202.20229465 36.44099139 199.10873871 36.43934953 196.01498413 36.43769836 C193.79740675 36.44368228 191.57983146 36.4504875 189.36225891 36.45805359 C183.33753976 36.47573294 177.3128774 36.48040974 171.28813481 36.48168516 C166.26062431 36.48358355 161.23312706 36.49094025 156.20562166 36.49802935 C145.02393063 36.51338719 133.8422606 36.51936661 122.66056127 36.51801865 C121.98990363 36.51793874 121.31924598 36.51785882 120.62826538 36.51777649 C119.95678781 36.51769473 119.28531024 36.51761297 118.59348487 36.51752873 C107.70816615 36.5167156 96.82298573 36.53586122 85.93770701 36.56405322 C74.7571741 36.5927812 63.57669184 36.60622732 52.39611715 36.60486567 C46.12045599 36.60435528 39.8449514 36.61008112 33.56932259 36.63122177 C27.66858152 36.65055688 21.76814716 36.65076086 15.8673954 36.63618851 C13.70101729 36.63409357 11.53462021 36.63884186 9.36827469 36.65090942 C6.41222232 36.66631043 3.45723435 36.65708752 0.50120544 36.64164734 C-0.35726122 36.65193447 -1.21572789 36.66222159 -2.1002087 36.67282045 C-7.4712527 36.6107679 -10.49059102 35.68864318 -14.76651001 32.14717102 C-19.54612761 26.96925195 -21.26453098 22.40083509 -21.07901001 15.42060852 C-20.35895295 10.18219343 -17.57218405 6.64407277 -13.64151001 3.27217102 C-9.00158275 -0.15734043 -5.61452736 -0.00119242 0 0 Z " fill="#000000" transform="translate(432.7665100097656,825.8528289794922)"/>
<path d="M0 0 C0.81881653 -0.00095673 1.63763306 -0.00191345 2.48126221 -0.00289917 C4.21276934 -0.00357884 5.94427903 -0.00173941 7.67578125 0.00244141 C10.30474699 0.00776516 12.93353975 0.00250344 15.5625 -0.00390625 C17.25000037 -0.00324489 18.93750064 -0.00196254 20.625 0 C21.40236511 -0.00202423 22.17973022 -0.00404846 22.98065186 -0.00613403 C36.20565172 0.04965186 36.20565172 0.04965186 39.33740234 2.52124023 C39.87034912 3.40984741 39.87034912 3.40984741 40.4140625 4.31640625 C40.83365234 4.98833008 41.25324219 5.66025391 41.68554688 6.35253906 C42.31299805 7.45033691 42.31299805 7.45033691 42.953125 8.5703125 C43.41009766 9.32151367 43.86707031 10.07271484 44.33789062 10.84667969 C45.78739431 13.25620541 47.18874325 15.68817368 48.578125 18.1328125 C49.04637695 18.95346191 49.51462891 19.77411133 49.99707031 20.61962891 C52.57413388 25.16226465 55.10906827 29.72536675 57.56640625 34.33398438 C58.6369981 36.31345965 58.6369981 36.31345965 60.421875 38.7109375 C62.1501557 42.33098491 61.61060531 44.26298172 60.578125 48.1328125 C58.9898534 51.70977281 57.12161399 55.09876815 55.203125 58.5078125 C54.48962891 59.82072266 54.48962891 59.82072266 53.76171875 61.16015625 C52.7115229 63.05806804 51.62047449 64.93373819 50.49755859 66.78955078 C49.01271776 69.37584057 47.79316472 71.85544994 46.58447266 74.56591797 C43.85104808 80.20196082 41.11493408 85.69836641 35.04974365 88.15826416 C28.76675537 89.64575226 22.52889522 89.72800856 16.10009766 89.56884766 C12.7014071 89.50778163 9.35169953 89.64924513 5.95703125 89.80859375 C-9.17227183 90.0275527 -9.17227183 90.0275527 -14.67572021 85.12509155 C-18.757684 80.09304251 -21.59927163 74.51137652 -24.26922607 68.63378906 C-25.68436567 65.5632696 -27.34717508 62.78613917 -29.1328125 59.91796875 C-30.0257567 58.34653745 -30.91417867 56.77252297 -31.796875 55.1953125 C-32.27125 54.38642578 -32.745625 53.57753906 -33.234375 52.74414062 C-35.1071066 49.39567462 -36.39552562 47.01036152 -36.51171875 43.140625 C-34.94902816 38.82782302 -32.86712362 34.93174075 -30.609375 30.9453125 C-30.12525146 30.08123779 -29.64112793 29.21716309 -29.14233398 28.3269043 C-25.53971506 21.96306567 -21.82017594 15.67125476 -17.984375 9.4453125 C-17.48897217 8.62587158 -16.99356934 7.80643066 -16.4831543 6.9621582 C-16.01047119 6.21023193 -15.53778809 5.45830566 -15.05078125 4.68359375 C-14.63900635 4.02012939 -14.22723145 3.35666504 -13.80297852 2.6730957 C-10.47281168 -1.04089096 -4.61294279 -0.01188811 0 0 Z " fill="#FCFCFC" transform="translate(527.421875,358.8671875)"/>
<path d="M0 0 C1.96060972 4.44593268 3.91768543 8.8933981 5.87158203 13.34228516 C6.53599032 14.85377359 7.20134202 16.3648477 7.86767578 17.87548828 C8.8283661 20.0539146 9.785591 22.23383593 10.7421875 24.4140625 C11.03809784 25.08305573 11.33400818 25.75204895 11.6388855 26.4413147 C16.32217264 37.14416716 16.32217264 37.14416716 14.7265625 41.3828125 C14.04291589 42.63953566 13.34115658 43.88651481 12.625 45.125 C9.12299838 51.59595521 6.18481449 58.14913625 3.5 65 C3.15018066 65.89090332 2.80036133 66.78180664 2.43994141 67.69970703 C1.62093227 69.79767162 0.80725926 71.89749195 0 74 C-7.4600893 73.5358484 -14.28608614 72.07322693 -21.4375 69.9375 C-22.47793457 69.62876953 -23.51836914 69.32003906 -24.59033203 69.00195312 C-41.43364209 63.86375247 -59.36351395 57.96264092 -70 43 C-71.50361283 38.48916151 -72.07483115 34.41599214 -70.1171875 30.015625 C-59.38966706 13.95646267 -36.72801135 7.78242468 -19.25 3 C-18.14309814 2.69690918 -17.03619629 2.39381836 -15.89575195 2.08154297 C-10.41334804 0.6536109 -5.70150971 -0.14169642 0 0 Z " fill="#FCFCFC" transform="translate(466,366)"/>
<path d="M0 0 C5.06089585 3.33559045 7.25815563 7.01799721 8.75 12.8125 C9.06705886 16.56511277 9.08322261 20.29808992 9.0625 24.0625 C9.05686035 25.13081055 9.0512207 26.19912109 9.04541016 27.29980469 C8.76112687 46.1075368 3.67323422 63.09193307 -2.25 80.8125 C-7.42881666 80.28878659 -12.60652304 79.75548034 -17.78344727 79.21337891 C-19.54359335 79.03041827 -21.30401113 78.85005171 -23.06469727 78.67236328 C-25.59988605 78.41605219 -28.13394144 78.15033417 -30.66796875 77.8828125 C-31.84325386 77.76705368 -31.84325386 77.76705368 -33.0422821 77.6489563 C-42.5176996 76.62599761 -42.5176996 76.62599761 -45.76049805 73.23120117 C-46.37985229 72.30271362 -46.37985229 72.30271362 -47.01171875 71.35546875 C-47.48649658 70.66090576 -47.96127441 69.96634277 -48.45043945 69.25073242 C-48.94116943 68.50799072 -49.43189941 67.76524902 -49.9375 67 C-50.98418675 65.45643611 -52.03370712 63.9147902 -53.0859375 62.375 C-53.87242676 61.22257812 -53.87242676 61.22257812 -54.67480469 60.046875 C-57.75608385 55.67615788 -61.17828905 51.57064923 -64.58203125 47.44921875 C-66.25 44.8125 -66.25 44.8125 -66.328125 42.81640625 C-64.72231567 39.83169542 -62.51144477 37.4933061 -60.1875 35.0625 C-59.68798828 34.53100342 -59.18847656 33.99950684 -58.67382812 33.4519043 C-57.20702629 31.89778162 -55.72966889 30.35436163 -54.25 28.8125 C-53.55003906 28.07128906 -52.85007812 27.33007812 -52.12890625 26.56640625 C-40.56819755 14.62114175 -18.24640691 -6.66695637 0 0 Z " fill="#FCFCFC" transform="translate(612.25,276.1875)"/>
<path d="M0 0 C12.38055366 6.51061283 22.69044086 16.55052356 32.5625 26.3125 C33.13395752 26.87461182 33.70541504 27.43672363 34.29418945 28.01586914 C37.9993805 31.74961658 41.03981486 35.6506777 44 40 C43.65855957 40.44166504 43.31711914 40.88333008 42.96533203 41.33837891 C41.34928798 43.43192743 39.73694143 45.52829105 38.125 47.625 C37.53581787 48.3888501 36.94663574 49.1527002 36.33959961 49.93969727 C33.51073534 53.62897108 30.73412912 57.32981527 28.12109375 61.17578125 C27.68587402 61.81241699 27.2506543 62.44905273 26.80224609 63.10498047 C25.99599506 64.29673318 25.2025422 65.49727994 24.42431641 66.70751953 C21.7017014 70.71884697 19.59742093 71.7450246 15 73 C12.94998888 73.33063625 10.88949466 73.60076457 8.82421875 73.81640625 C7.66599609 73.94080078 6.50777344 74.06519531 5.31445312 74.19335938 C4.11755859 74.31517578 2.92066406 74.43699219 1.6875 74.5625 C-0.09043945 74.75102539 -0.09043945 74.75102539 -1.90429688 74.94335938 C-4.21017807 75.18763187 -6.51632344 75.42942636 -8.82275391 75.66845703 C-12.88419744 76.09226526 -16.94213435 76.54332702 -21 77 C-24.15254658 67.75700172 -26.68896521 58.48668121 -28.75 48.9375 C-28.96035889 47.96288818 -29.17071777 46.98827637 -29.38745117 45.98413086 C-31.1796172 37.48215384 -32.21940303 29.31405029 -32.3125 20.625 C-32.34150391 19.73039062 -32.37050781 18.83578125 -32.40039062 17.9140625 C-32.47490894 10.02658544 -30.59197903 4.03451204 -25.4375 -2 C-17.4816475 -8.52787898 -8.17671021 -3.76647521 0 0 Z " fill="#FDFDFD" transform="translate(491,280)"/>
<path d="M0 0 C3.05635014 0.16383393 6.09542935 0.38273219 9.14453125 0.65625 C12.92163303 0.97555643 16.65936648 1.01803919 20.44921875 1.03125 C37.83045078 1.50357932 37.83045078 1.50357932 43.46240234 5.93945312 C47.70226204 10.67241096 50.73888299 16.03223064 53.68652344 21.63378906 C55.85588934 25.54187352 58.70524508 28.67442669 61.64453125 32.02734375 C63.29247854 34.4256532 63.86566565 36.09096654 64 39 C62.8125 40.73828125 62.8125 40.73828125 61 42.3125 C58.40525919 44.68294101 56.05447985 47.04301692 53.8125 49.75 C42.7421422 62.46131792 25.16783008 78.89516632 7.87109375 81.46484375 C3.01461296 81.70915751 -0.14830412 81.44105679 -4.5 79.1875 C-12.26524304 70.7560083 -11.77859296 58.93848023 -11.44921875 48.1875 C-10.51901674 31.63667883 -5.29733409 15.60073991 0 0 Z " fill="#FCFCFC" transform="translate(470,449)"/>
<path d="M0 0 C3.02790686 7.77954054 5.29278271 15.56236171 7.1875 23.6875 C7.44724609 24.76322266 7.70699219 25.83894531 7.97460938 26.94726562 C10.24292206 36.51872458 11.2163577 45.59893761 11.3125 55.4375 C11.35600586 56.91573242 11.35600586 56.91573242 11.40039062 58.42382812 C11.47124146 66.64797477 9.72962927 72.65620414 4.5 79.0625 C0.76501255 81.70114785 -3.06885636 81.87700092 -7.5390625 81.65625 C-25.96677932 78.16205539 -40.60482768 62.59664162 -53.375 50 C-54.20233643 49.18684326 -55.02967285 48.37368652 -55.88208008 47.53588867 C-56.65060303 46.76092041 -57.41912598 45.98595215 -58.2109375 45.1875 C-58.89462402 44.50042969 -59.57831055 43.81335938 -60.28271484 43.10546875 C-62.19392674 40.76223711 -63.26252692 38.93768826 -64 36 C-63.19238281 34.10986328 -63.19238281 34.10986328 -61.703125 32.3203125 C-61.16341064 31.64572998 -60.62369629 30.97114746 -60.06762695 30.27612305 C-59.46781006 29.56625244 -58.86799316 28.85638184 -58.25 28.125 C-52.92603133 21.88097805 -52.92603133 21.88097805 -49.09765625 14.69140625 C-47.15146438 10.10900404 -45.40461348 6.59923412 -41 4 C-27.90047147 0.2999454 -13.53591376 -0.09756996 0 0 Z " fill="#FDFDFD" transform="translate(610,449)"/>
<path d="M0 0 C7.69003817 0.42252957 14.60677682 1.73089532 21.9375 4.0625 C22.92532471 4.37268066 23.91314941 4.68286133 24.9309082 5.00244141 C58.58898818 15.78314568 58.58898818 15.78314568 69.25 28.5 C71.47951818 32.95903636 72.12103851 36.12307335 71 41 C65.6606431 53.38232184 52.80212197 58.52087134 41.05371094 63.20654297 C28.37902446 68.10344395 14.61586641 72.8885007 1 74 C-1.36532343 68.83722675 -3.70927376 63.6655306 -6.0078125 58.47265625 C-6.35714844 57.68358887 -6.70648437 56.89452148 -7.06640625 56.08154297 C-7.76037432 54.51211241 -8.45312656 52.94214355 -9.14453125 51.37158203 C-9.63373047 50.26532471 -9.63373047 50.26532471 -10.1328125 49.13671875 C-10.44508789 48.42563965 -10.75736328 47.71456055 -11.07910156 46.98193359 C-11.89751923 45.22055643 -12.84331344 43.5196381 -13.8046875 41.83203125 C-15.64018974 37.48321059 -14.4803068 34.24382319 -12.81665039 29.93554688 C-12.33188232 28.87400391 -11.84711426 27.81246094 -11.34765625 26.71875 C-10.81849609 25.54699219 -10.28933594 24.37523437 -9.74414062 23.16796875 C-9.18403217 21.94511159 -8.62348159 20.72245685 -8.0625 19.5 C-6.96610005 17.09550786 -5.87501061 14.68872902 -4.78515625 12.28125 C-4.29926025 11.21970703 -3.81336426 10.15816406 -3.31274414 9.06445312 C-2.03508107 6.08189279 -0.97938534 3.0918816 0 0 Z " fill="#FDFDFD" transform="translate(614,366)"/>
<path d="M0 0 C4.39533457 2.5053407 6.94594492 5.79449228 8.75 10.5 C9.65760538 15.17456932 9.27059004 19.07731091 7.0625 23.3125 C4.10579079 27.38796405 1.54915534 29.90028155 -3.25 31.5 C-8.5732961 32.00976619 -12.90894804 32.17052598 -17.75 29.75 C-22.73786515 25.26092136 -24.40558864 21.57605084 -24.8125 14.875 C-24.79702071 8.50527291 -22.67524896 5.57470523 -18.29296875 1.14453125 C-13.16370701 -2.98437734 -5.81516589 -2.50482478 0 0 Z " fill="#030303" transform="translate(548.25,387.5)"/>
<path d="M0 0 C12.54 0 25.08 0 38 0 C32.85403342 9.00544152 26.76326468 17.14588618 20 25 C16.10875364 23.70291788 14.61604079 21.28939811 12.25 18.125 C11.84523438 17.60164063 11.44046875 17.07828125 11.0234375 16.5390625 C6.9756809 11.20909729 3.62760478 5.7005218 0 0 Z " fill="#F7F7F7" transform="translate(521,454)"/>
<path d="M0 0 C2.49119825 3.16892973 4.52310132 6.48423445 6.5390625 9.97265625 C6.86538666 10.53697861 7.19171082 11.10130096 7.52792358 11.682724 C8.21325648 12.86953075 8.89728641 14.05709077 9.58007812 15.24536133 C10.62493302 17.06238351 11.67546349 18.87603744 12.7265625 20.68945312 C13.39357221 21.84615642 14.06025039 23.00305097 14.7265625 24.16015625 C15.63269287 25.73228882 15.63269287 25.73228882 16.55712891 27.33618164 C18 30 18 30 19 33 C11.99415041 33.17387838 5.36390495 32.5176452 -1.5625 31.5 C-2.57119141 31.35691406 -3.57988281 31.21382813 -4.61914062 31.06640625 C-7.08027802 30.7164815 -9.5404548 30.36091674 -12 30 C-11.43088328 25.80160433 -10.45451706 22.29190181 -8.75 18.41796875 C-8.3065625 17.40412109 -7.863125 16.39027344 -7.40625 15.34570312 C-6.71015625 13.78239258 -6.71015625 13.78239258 -6 12.1875 C-5.5359375 11.12595703 -5.071875 10.06441406 -4.59375 8.97070312 C-1.15221429 1.15221429 -1.15221429 1.15221429 0 0 Z " fill="#F8F8F8" transform="translate(486,412)"/>
<path d="M0 0 C0.66 0 1.32 0 2 0 C14 25.10679612 14 25.10679612 14 29 C10.16772354 29.50832642 6.33403696 30.00514174 2.5 30.5 C1.42234375 30.64308594 0.3446875 30.78617187 -0.765625 30.93359375 C-6.56477697 31.67616809 -12.15389099 32.17027502 -18 32 C-12.23441435 21.20217073 -6.09312661 10.61493017 0 0 Z " fill="#F8F8F8" transform="translate(593,413)"/>
<path d="M0 0 C-2.76663951 5.68057697 -5.76086979 11.13941078 -9 16.5625 C-9.85458598 18.00105307 -10.70875745 19.43985247 -11.5625 20.87890625 C-11.96984375 21.56484863 -12.3771875 22.25079102 -12.796875 22.95751953 C-14.5621707 25.9543669 -16.28294878 28.97528709 -18 32 C-21.93305831 28.46984378 -23.51882194 23.93998888 -25.625 19.1875 C-26.03234375 18.29740234 -26.4396875 17.40730469 -26.859375 16.49023438 C-28.86985775 11.99993432 -30.52502617 7.95446839 -31 3 C-20.71231196 0.65568171 -10.53830917 -0.17563849 0 0 Z " fill="#F9F9F9" transform="translate(505,361)"/>
<path d="M0 0 C10.46630933 0.44637458 20.67716783 1.1214634 31 3 C28.91932667 9.76296354 26.26750264 16.13878613 23.3125 22.5625 C22.89677734 23.47580078 22.48105469 24.38910156 22.05273438 25.33007812 C21.03917098 27.55525752 20.02154784 29.77847781 19 32 C18.34 32 17.68 32 17 32 C16.69819824 31.44650879 16.39639648 30.89301758 16.08544922 30.32275391 C14.68410049 27.75566254 13.2800966 25.19004195 11.875 22.625 C11.37379639 21.70992676 10.87259277 20.79485352 10.35620117 19.85205078 C7.34212366 14.37217592 4.26625489 8.96798661 0.92578125 3.6796875 C0 2 0 2 0 0 Z " fill="#FAFAFA" transform="translate(576,361)"/>
<path d="M0 0 C4.60243408 4.27306969 8.16410516 9.09113574 11.8125 14.1875 C12.40998047 15.00669922 13.00746094 15.82589844 13.62304688 16.66992188 C14.18701172 17.45302734 14.75097656 18.23613281 15.33203125 19.04296875 C15.84483643 19.75477295 16.3576416 20.46657715 16.88598633 21.19995117 C18 23 18 23 18 25 C6.12 25 -5.76 25 -18 25 C-16.05476639 21.10953278 -13.77925863 17.70155308 -11.25 14.1875 C-10.80479004 13.56601074 -10.35958008 12.94452148 -9.90087891 12.30419922 C-6.79743517 8.00980755 -3.55723813 3.93168425 0 0 Z " fill="#FAFAFA" transform="translate(540,326)"/>
</svg>
